<svg xmlns="http://www.w3.org/2000/svg" width="48" height="48" viewBox="0 0 48 48" fill="none">
  <rect width="47.9445" height="47.9445" rx="10.6269" fill="#1F1F1F"/>
  <path d="M30.4721 14.4315C30.4721 18.2347 27.389 21.3179 23.5857 21.3179C19.7824 21.3179 16.6993 18.2347 16.6993 14.4315C16.6993 10.6282 19.7824 7.54503 23.5857 7.54503C27.389 7.54503 30.4721 10.6282 30.4721 14.4315Z" stroke="#FFD976" stroke-width="1.62034"/>
  <path d="M20.754 31.4451C20.754 35.2484 17.6709 38.3316 13.8676 38.3316C10.0643 38.3316 6.98119 35.2484 6.98119 31.4451C6.98119 27.6419 10.0643 24.5587 13.8676 24.5587C17.6709 24.5587 20.754 27.6419 20.754 31.4451Z" stroke="#FFD976" stroke-width="1.62034"/>
  <path d="M41.004 31.4451C41.004 35.2484 37.9209 38.3316 34.1176 38.3316C30.3143 38.3316 27.2312 35.2484 27.2312 31.4451C27.2312 27.6419 30.3143 24.5587 34.1176 24.5587C37.9209 24.5587 41.004 27.6419 41.004 31.4451Z" stroke="#FFD976" stroke-width="1.62034"/>
  <rect x="19.9503" y="10.7852" width="7.29151" height="7.29151" rx="3.64576" fill="#FFFBE9"/>
  <rect x="10.2162" y="27.7998" width="7.29151" height="7.29151" rx="3.64576" fill="#FFFBE9"/>
  <rect x="30.4662" y="27.7998" width="7.29151" height="7.29151" rx="3.64576" fill="#FFFBE9"/>
  <rect x="18.3226" y="18.8877" width="2.43413" height="6.48134" rx="1.21707" transform="rotate(30 18.3226 18.8877)" fill="#FFD976"/>
  <rect x="26.9875" y="19.6763" width="2.43413" height="7.55659" rx="1.21707" transform="rotate(-30 26.9875 19.6763)" fill="#FFD976"/>
  <rect x="27.5939" y="31.062" width="2.43275" height="7.20468" rx="1.21637" transform="rotate(90 27.5939 31.062)" fill="#FFD976"/>
</svg>
